<svg width="24" height="25" viewBox="0 0 24 25" fill="none" xmlns="http://www.w3.org/2000/svg">
<path id="Vector" fill-rule="evenodd" clip-rule="evenodd" d="M14.7223 16.7805C13.3092 17.6455 11.6408 18.1451 9.85384 18.1451C4.75858 18.1451 0.628052 14.0832 0.628052 9.07256C0.628052 4.06192 4.75858 0 9.85384 0C14.9491 0 19.0796 4.06192 19.0796 9.07256C19.0796 11.4504 18.1494 13.6146 16.6273 15.2324L23.6398 22.1285C24.1202 22.6009 24.1202 23.3668 23.6398 23.8392C23.1594 24.3116 22.3805 24.3116 21.9001 23.8392L14.7223 16.7805ZM16.6194 9.07256C16.6194 12.747 13.5904 15.7258 9.85384 15.7258C6.11732 15.7258 3.08826 12.747 3.08826 9.07256C3.08826 5.39809 6.11732 2.41935 9.85384 2.41935C13.5904 2.41935 16.6194 5.39809 16.6194 9.07256Z" fill="white"/>
</svg>
